<?xml version="1.0" standalone="no"?>
<!DOCTYPE svg PUBLIC "-//W3C//DTD SVG 20010904//EN"
 "http://www.w3.org/TR/2001/REC-SVG-20010904/DTD/svg10.dtd">
<svg version="1.0" xmlns="http://www.w3.org/2000/svg"
 width="630.000000pt" height="630.000000pt" viewBox="0 0 630.000000 630.000000"
 preserveAspectRatio="xMidYMid meet">
<metadata>
Created by potrace 1.14, written by Peter Selinger 2001-2017
</metadata>
<g transform="translate(0.000000,630.000000) scale(0.100000,-0.100000)"
fill="#000000" stroke="none">
<path d="M3045 5658 c-101 -21 -90 -18 -205 -48 -91 -23 -271 -81 -385 -125
-38 -15 -74 -28 -80 -29 -10 -3 -15 -5 -125 -51 -183 -76 -500 -248 -647 -350
-35 -25 -68 -45 -73 -45 -6 0 -10 -4 -10 -8 0 -4 -15 -16 -32 -27 -18 -10 -35
-21 -38 -24 -3 -4 -16 -14 -30 -23 -14 -8 -58 -43 -97 -77 -40 -34 -73 -59
-73 -56 0 3 -17 -12 -38 -32 -20 -21 -69 -68 -109 -104 -114 -106 -133 -151
-93 -229 30 -59 46 -66 405 -161 44 -12 127 -35 185 -50 58 -16 121 -34 140
-39 19 -5 80 -23 135 -39 55 -16 163 -46 240 -66 77 -21 209 -58 294 -82 84
-25 161 -46 170 -48 9 -2 84 -23 166 -46 164 -46 239 -66 575 -159 124 -34
257 -71 295 -82 39 -11 84 -23 100 -28 147 -39 417 -114 453 -126 24 -9 52
-17 61 -19 17 -4 486 -133 581 -160 30 -8 71 -20 90 -25 19 -5 67 -18 105 -29
230 -67 319 -90 326 -85 22 13 -1 54 -94 164 -6 8 -61 78 -122 156 -60 78
-142 182 -182 230 -106 131 -360 447 -418 520 -44 56 -303 376 -347 429 -14
17 -383 482 -406 510 -66 85 -323 396 -342 413 -14 12 -43 32 -65 44 -55 30
-186 33 -310 6z m272 -904 c158 -52 234 -177 194 -317 -16 -54 -81 -134 -117
-143 -13 -3 -24 -10 -24 -14 0 -14 -124 -39 -180 -36 -161 7 -300 130 -300
264 0 44 34 128 68 166 29 31 104 70 162 83 52 12 157 10 197 -3z m-822 -21
c85 -46 81 -154 -8 -193 -97 -43 -219 20 -212 108 7 86 130 133 220 85z"/>
<path d="M983 3318 c1 -436 6 -805 10 -821 26 -98 66 -169 137 -243 48 -50
160 -117 196 -117 8 0 14 -3 14 -7 0 -3 8 -6 18 -7 16 -1 337 -89 512 -140 30
-9 60 -17 66 -19 11 -2 336 -93 444 -124 36 -10 117 -33 180 -50 63 -17 133
-37 155 -45 22 -7 78 -23 125 -35 47 -12 92 -25 100 -28 8 -3 20 -6 25 -8 6
-1 89 -25 185 -54 96 -28 182 -53 190 -55 19 -4 84 -21 130 -33 19 -5 217 -61
440 -125 470 -134 878 -249 1070 -302 74 -20 146 -40 160 -45 74 -24 191 -52
197 -46 9 9 8 1884 0 1893 -5 5 -202 62 -337 98 -103 28 -167 45 -350 96 -118
33 -237 67 -265 75 -27 8 -66 19 -85 24 -19 5 -100 28 -180 51 -80 23 -152 43
-160 44 -8 2 -53 15 -100 28 -47 14 -177 50 -290 81 -113 32 -227 64 -255 71
-106 31 -516 145 -640 179 -71 19 -238 65 -370 101 -132 37 -253 71 -270 75
-16 4 -82 22 -145 40 -220 62 -246 69 -360 100 -233 62 -446 122 -468 131 -13
5 -36 9 -53 9 l-30 0 4 -792z m1879 -208 c107 -53 175 -132 207 -238 62 -208
-77 -430 -299 -479 -79 -17 -223 14 -288 63 -95 72 -160 179 -169 278 -7 72
12 169 42 221 28 49 96 114 149 144 103 59 252 63 358 11z m-1066 -1 c74 -23
142 -136 130 -214 -17 -103 -100 -175 -201 -175 -117 0 -216 98 -209 205 6 89
53 154 137 187 42 17 84 16 143 -3z m2209 -567 c93 -26 185 -112 220 -204 17
-46 22 -114 12 -174 -16 -91 -92 -186 -186 -231 -47 -23 -70 -27 -141 -28 -73
0 -93 4 -140 27 -72 36 -133 96 -167 166 -38 77 -40 192 -4 265 74 152 238
225 406 179z m796 -452 c46 -24 68 -52 75 -95 8 -54 0 -78 -36 -115 -75 -77
-199 -46 -230 57 -11 35 -10 46 8 87 32 71 115 101 183 66z"/>
</g>
</svg>
